<?xml version="1.0" encoding="UTF-8"?>
<svg width="170px" height="54px" viewBox="0 0 170 54" version="1.1" xmlns="http://www.w3.org/2000/svg" xmlns:xlink="http://www.w3.org/1999/xlink">
    <!-- Generator: Sketch 57.1 (83088) - https://sketch.com -->
    <title>YTS_Blue</title>
    <desc>Created with Sketch.</desc>
    <defs>
        <linearGradient x1="49.9971477%" y1="2.21209126%" x2="50.0038807%" y2="101.938524%" id="linearGradient-1">
            <stop stop-color="#002D74" stop-opacity="0" offset="0%"></stop>
            <stop stop-color="#002D74" offset="73.75%"></stop>
        </linearGradient>
        <linearGradient x1="75.812601%" y1="91.1151237%" x2="27.6384036%" y2="0.145710494%" id="linearGradient-2">
            <stop stop-color="#033072" stop-opacity="0.4" offset="0%"></stop>
            <stop stop-color="#033072" offset="50%"></stop>
        </linearGradient>
    </defs>
    <g id="Symbols" stroke="none" stroke-width="1" fill="none" fill-rule="evenodd">
        <g id="Top-Nav---neutral---on-white" transform="translate(0.000000, -1.000000)" fill-rule="nonzero">
            <g id="Group-5">
                <g id="YTS_Blue">
                    <g id="Group" transform="translate(92.714286, 0.000000)">
                        <g transform="translate(12.309524, 14.404762)" fill="#002D74">
                            <path d="M2.90714286,5.34285714 L0.183333333,1.59761905 C0.104761905,1.46666667 0.0261904762,1.30952381 0.0261904762,1.1 C0.0261904762,0.733333333 0.34047619,0.445238095 0.733333333,0.445238095 C1.04761905,0.445238095 1.23095238,0.602380952 1.41428571,0.864285714 L3.61428571,4.03333333 L5.86666667,0.838095238 C6.02380952,0.602380952 6.23333333,0.419047619 6.52142857,0.419047619 C6.94047619,0.419047619 7.20238095,0.733333333 7.20238095,1.1 C7.20238095,1.28333333 7.12380952,1.46666667 7.01904762,1.59761905 L4.32142857,5.29047619 L4.32142857,7.77857143 C4.32142857,8.17142857 4.00714286,8.45952381 3.61428571,8.45952381 C3.22142857,8.45952381 2.93333333,8.1452381 2.93333333,7.77857143 L2.93333333,5.34285714 L2.90714286,5.34285714 Z" id="Path"></path>
                            <path d="M7.17619048,5.47380952 L7.17619048,5.47380952 C7.17619048,3.7452381 8.53809524,2.33095238 10.3714286,2.33095238 C12.2047619,2.33095238 13.5404762,3.71904762 13.5404762,5.42142857 L13.5404762,5.44761905 C13.5404762,7.15 12.1785714,8.56428571 10.3452381,8.56428571 C8.51190476,8.56428571 7.17619048,7.17619048 7.17619048,5.47380952 Z M12.1785714,5.47380952 L12.1785714,5.47380952 C12.1785714,4.4 11.4190476,3.53571429 10.3452381,3.53571429 C9.2452381,3.53571429 8.53809524,4.4 8.53809524,5.44761905 L8.53809524,5.47380952 C8.53809524,6.52142857 9.29761905,7.38571429 10.3714286,7.38571429 C11.4714286,7.35952381 12.1785714,6.4952381 12.1785714,5.47380952 Z" id="Shape"></path>
                            <path d="M15.0071429,0.785714286 C15.0071429,0.419047619 15.2952381,0.104761905 15.6880952,0.104761905 C16.0809524,0.104761905 16.3690476,0.419047619 16.3690476,0.785714286 L16.3690476,7.8047619 C16.3690476,8.19761905 16.0547619,8.48571429 15.6880952,8.48571429 C15.3214286,8.48571429 15.0071429,8.19761905 15.0071429,7.8047619 L15.0071429,0.785714286 Z" id="Path"></path>
                            <path d="M18.4380952,6.78333333 L18.4380952,3.64047619 L18.202381,3.64047619 C17.8619048,3.64047619 17.6261905,3.37857143 17.6261905,3.06428571 C17.6261905,2.72380952 17.8880952,2.48809524 18.202381,2.48809524 L18.4380952,2.48809524 L18.4380952,1.46666667 C18.4380952,1.1 18.752381,0.785714286 19.1190476,0.785714286 C19.4857143,0.785714286 19.8,1.1 19.8,1.46666667 L19.8,2.48809524 L20.8738095,2.48809524 C21.2142857,2.48809524 21.4761905,2.75 21.4761905,3.06428571 C21.4761905,3.4047619 21.2142857,3.64047619 20.8738095,3.64047619 L19.8,3.64047619 L19.8,6.54761905 C19.8,7.07142857 20.0619048,7.30714286 20.5333333,7.30714286 C20.6904762,7.30714286 20.8214286,7.28095238 20.8738095,7.28095238 C21.1880952,7.28095238 21.45,7.54285714 21.45,7.85714286 C21.45,8.11904762 21.2928571,8.30238095 21.0833333,8.38095238 C20.7952381,8.48571429 20.5071429,8.53809524 20.1404762,8.53809524 C19.1714286,8.53809524 18.4380952,8.09285714 18.4380952,6.78333333 Z" id="Path"></path>
                            <path d="M2.61904762,13.6714286 L0.707142857,13.6714286 C0.34047619,13.6714286 0.0523809524,13.3833333 0.0523809524,13.0166667 C0.0523809524,12.6761905 0.34047619,12.3619048 0.707142857,12.3619048 L5.97142857,12.3619048 C6.31190476,12.3619048 6.6,12.65 6.6,13.0166667 C6.6,13.3571429 6.31190476,13.6714286 5.97142857,13.6714286 L4.03333333,13.6714286 L4.03333333,19.6690476 C4.03333333,20.0619048 3.71904762,20.35 3.32619048,20.35 C2.93333333,20.35 2.61904762,20.0357143 2.61904762,19.6690476 L2.61904762,13.6714286 L2.61904762,13.6714286 Z" id="Path"></path>
                            <path d="M9.29761905,20.4285714 C7.56904762,20.4285714 6.23333333,19.1714286 6.23333333,17.3380952 L6.23333333,17.3119048 C6.23333333,15.6095238 7.43809524,14.1952381 9.14047619,14.1952381 C11.052381,14.1952381 11.9690476,15.7666667 11.9690476,17.1285714 C11.9690476,17.5214286 11.6809524,17.7833333 11.3142857,17.7833333 L7.5952381,17.7833333 C7.75238095,18.752381 8.43333333,19.302381 9.32380952,19.302381 C9.9,19.302381 10.3452381,19.0928571 10.7380952,18.7785714 C10.8428571,18.7 10.9214286,18.647619 11.0785714,18.647619 C11.3928571,18.647619 11.6285714,18.8833333 11.6285714,19.197619 C11.6285714,19.3547619 11.55,19.5119048 11.4452381,19.6166667 C10.8952381,20.1404762 10.2142857,20.4285714 9.29761905,20.4285714 Z M10.6595238,16.8928571 C10.5809524,16.002381 10.0571429,15.3214286 9.14047619,15.3214286 C8.30238095,15.3214286 7.72619048,15.9761905 7.5952381,16.8928571 L10.6595238,16.8928571 Z" id="Shape"></path>
                            <path d="M13.0690476,17.3642857 L13.0690476,17.3642857 C13.0690476,15.6357143 14.3785714,14.2214286 16.1857143,14.2214286 C17.1285714,14.2214286 17.7571429,14.5357143 18.2809524,14.9809524 C18.3595238,15.0595238 18.4904762,15.2428571 18.4904762,15.452381 C18.4904762,15.7928571 18.202381,16.0809524 17.8619048,16.0809524 C17.7047619,16.0809524 17.547619,16.002381 17.4428571,15.95 C17.102381,15.6619048 16.7095238,15.452381 16.1595238,15.452381 C15.1642857,15.452381 14.4309524,16.3166667 14.4309524,17.3642857 L14.4309524,17.3904762 C14.4309524,18.4642857 15.1642857,19.302381 16.2119048,19.302381 C16.7619048,19.302381 17.1809524,19.0928571 17.547619,18.7785714 C17.6261905,18.7 17.7571429,18.6214286 17.9142857,18.6214286 C18.2547619,18.6214286 18.4904762,18.8833333 18.4904762,19.2238095 C18.4904762,19.4071429 18.4119048,19.5642857 18.3071429,19.6428571 C17.7833333,20.1404762 17.1285714,20.4809524 16.1333333,20.4809524 C14.3785714,20.4285714 13.0690476,19.0404762 13.0690476,17.3642857 Z" id="Path"></path>
                            <path d="M19.852381,12.6761905 C19.852381,12.3095238 20.1404762,11.9952381 20.5333333,11.9952381 C20.9261905,11.9952381 21.2142857,12.3095238 21.2142857,12.6761905 L21.2142857,15.2428571 C21.6071429,14.6928571 22.1571429,14.1952381 23.0738095,14.1952381 C24.4095238,14.1952381 25.1952381,15.1119048 25.1952381,16.4738095 L25.1952381,19.6690476 C25.1952381,20.0619048 24.9071429,20.35 24.5142857,20.35 C24.1214286,20.35 23.8333333,20.0619048 23.8333333,19.6690476 L23.8333333,16.8928571 C23.8333333,15.9761905 23.3619048,15.4261905 22.55,15.4261905 C21.7642857,15.4261905 21.2142857,15.9761905 21.2142857,16.9190476 L21.2142857,19.6690476 C21.2142857,20.0619048 20.9,20.35 20.5333333,20.35 C20.1666667,20.35 19.852381,20.0619048 19.852381,19.6690476 L19.852381,12.6761905 Z" id="Path"></path>
                            <path d="M26.8714286,14.9547619 C26.8714286,14.5619048 27.1595238,14.2738095 27.552381,14.2738095 C27.9452381,14.2738095 28.2333333,14.5880952 28.2333333,14.9547619 L28.2333333,15.2428571 C28.6261905,14.6928571 29.1761905,14.1952381 30.0928571,14.1952381 C31.4285714,14.1952381 32.2142857,15.1119048 32.2142857,16.4738095 L32.2142857,19.6690476 C32.2142857,20.0619048 31.9261905,20.35 31.5333333,20.35 C31.1404762,20.35 30.852381,20.0619048 30.852381,19.6690476 L30.852381,16.8928571 C30.852381,15.9761905 30.3809524,15.4261905 29.5690476,15.4261905 C28.7833333,15.4261905 28.2333333,15.9761905 28.2333333,16.9190476 L28.2333333,19.6690476 C28.2333333,20.0619048 27.9190476,20.35 27.552381,20.35 C27.1857143,20.35 26.8714286,20.0619048 26.8714286,19.6690476 L26.8714286,14.9547619 Z" id="Path"></path>
                            <path d="M33.55,17.3642857 L33.55,17.3642857 C33.55,15.6357143 34.9119048,14.2214286 36.7452381,14.2214286 C38.5785714,14.2214286 39.9142857,15.6095238 39.9142857,17.3119048 L39.9142857,17.3380952 C39.9142857,19.0404762 38.552381,20.4547619 36.7190476,20.4547619 C34.9119048,20.4285714 33.55,19.0404762 33.55,17.3642857 Z M38.552381,17.3642857 L38.552381,17.3642857 C38.552381,16.2904762 37.7928571,15.4261905 36.7190476,15.4261905 C35.6190476,15.4261905 34.9119048,16.2904762 34.9119048,17.3380952 L34.9119048,17.3642857 C34.9119048,18.4119048 35.6714286,19.2761905 36.7452381,19.2761905 C37.8452381,19.25 38.552381,18.3857143 38.552381,17.3642857 Z" id="Shape"></path>
                            <path d="M41.4071429,12.6761905 C41.4071429,12.3095238 41.6952381,11.9952381 42.0880952,11.9952381 C42.4809524,11.9952381 42.7690476,12.3095238 42.7690476,12.6761905 L42.7690476,19.6952381 C42.7690476,20.0880952 42.4547619,20.3761905 42.0880952,20.3761905 C41.7214286,20.3761905 41.4071429,20.0880952 41.4071429,19.6952381 L41.4071429,12.6761905 Z" id="Path"></path>
                            <path d="M44.2357143,17.3642857 L44.2357143,17.3642857 C44.2357143,15.6357143 45.597619,14.2214286 47.4309524,14.2214286 C49.2642857,14.2214286 50.6,15.6095238 50.6,17.3119048 L50.6,17.3380952 C50.6,19.0404762 49.2380952,20.4547619 47.4047619,20.4547619 C45.5714286,20.4285714 44.2357143,19.0404762 44.2357143,17.3642857 Z M49.2119048,17.3642857 L49.2119048,17.3642857 C49.2119048,16.2904762 48.452381,15.4261905 47.3785714,15.4261905 C46.2785714,15.4261905 45.5714286,16.2904762 45.5714286,17.3380952 L45.5714286,17.3642857 C45.5714286,18.4119048 46.3309524,19.2761905 47.4047619,19.2761905 C48.5309524,19.25 49.2119048,18.3857143 49.2119048,17.3642857 Z" id="Shape"></path>
                            <path d="M52.3285714,21.6071429 C52.0928571,21.5285714 51.9357143,21.3190476 51.9357143,21.0571429 C51.9357143,20.7428571 52.197619,20.4809524 52.5119048,20.4809524 C52.6166667,20.4809524 52.6952381,20.5071429 52.7738095,20.5333333 C53.3238095,20.847619 53.9261905,21.0047619 54.6071429,21.0047619 C55.8380952,21.0047619 56.4928571,20.3761905 56.4928571,19.1714286 L56.4928571,18.7 C55.9952381,19.3547619 55.3666667,19.8 54.397619,19.8 C52.9833333,19.8 51.6738095,18.752381 51.6738095,16.997619 L51.6738095,17.0238095 C51.6738095,15.2690476 53.0095238,14.2214286 54.397619,14.2214286 C55.3928571,14.2214286 56.0214286,14.6928571 56.4928571,15.2428571 L56.4928571,14.9547619 C56.4928571,14.5880952 56.8071429,14.2738095 57.1738095,14.2738095 C57.5666667,14.2738095 57.8547619,14.5880952 57.8547619,14.9547619 L57.8547619,19.0928571 C57.8547619,20.0880952 57.5928571,20.847619 57.0952381,21.3452381 C56.5452381,21.8952381 55.7071429,22.1571429 54.6333333,22.1571429 C53.7952381,22.1309524 53.0619048,21.947619 52.3285714,21.6071429 Z M56.5190476,17.0238095 L56.5190476,17.0238095 C56.5190476,16.0285714 55.7071429,15.3738095 54.7642857,15.3738095 C53.8214286,15.3738095 53.0619048,16.0285714 53.0619048,17.0238095 L53.0619048,17.05 C53.0619048,18.0190476 53.8214286,18.7 54.7642857,18.7 C55.7071429,18.6738095 56.5190476,17.9928571 56.5190476,17.0238095 Z" id="Shape"></path>
                            <path d="M59.7142857,21.9738095 C59.5047619,21.8952381 59.2952381,21.7380952 59.2952381,21.397619 C59.2952381,21.0571429 59.5571429,20.8214286 59.8452381,20.8214286 C59.95,20.8214286 60.0285714,20.847619 60.1071429,20.8738095 C60.2642857,20.9261905 60.3952381,20.952381 60.5785714,20.952381 C60.997619,20.952381 61.2071429,20.7952381 61.4166667,20.3238095 L61.4690476,20.1928571 L59.2428571,15.2428571 C59.1904762,15.1380952 59.1642857,15.0071429 59.1642857,14.902381 C59.1642857,14.5095238 59.452381,14.247619 59.8452381,14.247619 C60.1857143,14.247619 60.3952381,14.4571429 60.5,14.7714286 L62.097619,18.752381 L63.5904762,14.7714286 C63.6952381,14.4833333 63.9047619,14.247619 64.2452381,14.247619 C64.6119048,14.247619 64.9,14.5357143 64.9,14.902381 C64.9,15.0071429 64.8738095,15.1642857 64.847619,15.2428571 L62.6738095,20.4809524 C62.1761905,21.7119048 61.6261905,22.1571429 60.6571429,22.1571429 C60.2904762,22.1571429 60.002381,22.1047619 59.7142857,21.9738095 Z" id="Path"></path>
                            <path d="M0.471428571,31.297619 C0.314285714,31.1928571 0.20952381,30.9833333 0.20952381,30.7738095 C0.20952381,30.4071429 0.497619048,30.1190476 0.864285714,30.1190476 C1.04761905,30.1190476 1.17857143,30.1714286 1.28333333,30.25 C1.93809524,30.7738095 2.6452381,31.0619048 3.50952381,31.0619048 C4.37380952,31.0619048 4.92380952,30.6428571 4.92380952,30.0666667 L4.92380952,30.0404762 C4.92380952,29.4642857 4.60952381,29.1761905 3.14285714,28.8357143 C1.46666667,28.4166667 0.497619048,27.9190476 0.497619048,26.4785714 L0.497619048,26.452381 C0.497619048,25.0904762 1.62380952,24.147619 3.1952381,24.147619 C4.19047619,24.147619 5.00238095,24.4095238 5.70952381,24.8809524 C5.86666667,24.9595238 6.02380952,25.1690476 6.02380952,25.4309524 C6.02380952,25.797619 5.73571429,26.0857143 5.36904762,26.0857143 C5.23809524,26.0857143 5.13333333,26.0595238 5.00238095,25.9809524 C4.4,25.5880952 3.79761905,25.3785714 3.16904762,25.3785714 C2.35714286,25.3785714 1.88571429,25.797619 1.88571429,26.3214286 L1.88571429,26.347619 C1.88571429,26.95 2.25238095,27.2380952 3.77142857,27.6047619 C5.44761905,28.0238095 6.31190476,28.6 6.31190476,29.9357143 L6.31190476,29.9619048 C6.31190476,31.4547619 5.15952381,32.3190476 3.48333333,32.3190476 C2.38333333,32.2928571 1.36190476,31.952381 0.471428571,31.297619 Z" id="Path"></path>
                            <path d="M10.502381,32.3190476 C8.77380952,32.3190476 7.43809524,31.0619048 7.43809524,29.2285714 L7.43809524,29.202381 C7.43809524,27.5 8.64285714,26.0857143 10.3452381,26.0857143 C12.2571429,26.0857143 13.1738095,27.6571429 13.1738095,29.0190476 C13.1738095,29.4119048 12.8857143,29.6738095 12.5190476,29.6738095 L8.77380952,29.6738095 C8.93095238,30.6428571 9.61190476,31.1928571 10.502381,31.1928571 C11.0785714,31.1928571 11.5238095,30.9833333 11.9166667,30.6690476 C12.0214286,30.5904762 12.1,30.5380952 12.2571429,30.5380952 C12.5714286,30.5380952 12.8071429,30.7738095 12.8071429,31.0880952 C12.8071429,31.2452381 12.7285714,31.402381 12.6238095,31.5071429 C12.1,32.0047619 11.4190476,32.3190476 10.502381,32.3190476 Z M11.8642857,28.7833333 C11.7857143,27.8928571 11.2619048,27.2119048 10.3452381,27.2119048 C9.50714286,27.2119048 8.93095238,27.8666667 8.8,28.7833333 L11.8642857,28.7833333 Z" id="Shape"></path>
                            <path d="M14.5880952,26.8452381 C14.5880952,26.452381 14.8761905,26.1642857 15.2690476,26.1642857 C15.6619048,26.1642857 15.95,26.4785714 15.95,26.8452381 L15.95,27.447619 C16.2642857,26.6880952 16.8666667,26.1380952 17.4428571,26.1380952 C17.8619048,26.1380952 18.1238095,26.4261905 18.1238095,26.8190476 C18.1238095,27.1857143 17.8880952,27.4214286 17.5738095,27.4738095 C16.6047619,27.6309524 15.9238095,28.3904762 15.9238095,29.8047619 L15.9238095,31.5595238 C15.9238095,31.9261905 15.6095238,32.2404762 15.2428571,32.2404762 C14.8761905,32.2404762 14.5619048,31.952381 14.5619048,31.5595238 L14.5619048,26.8452381 L14.5880952,26.8452381 Z" id="Path"></path>
                            <path d="M21.7642857,32.2928571 L21.6857143,32.2928571 C21.3190476,32.2928571 21.0571429,32.0571429 20.9,31.6904762 L18.9095238,27.1333333 C18.8833333,27.0285714 18.8309524,26.9238095 18.8309524,26.7928571 C18.8309524,26.452381 19.1452381,26.1380952 19.5119048,26.1380952 C19.8785714,26.1380952 20.0880952,26.347619 20.1928571,26.6357143 L21.7380952,30.5904762 L23.3095238,26.6095238 C23.4142857,26.3738095 23.597619,26.1380952 23.9642857,26.1380952 C24.3309524,26.1380952 24.6190476,26.4261905 24.6190476,26.7928571 C24.6190476,26.9238095 24.5666667,27.0547619 24.5404762,27.1333333 L22.5238095,31.6904762 C22.3666667,32.0571429 22.1309524,32.2928571 21.7642857,32.2928571 Z" id="Path"></path>
                            <path d="M25.8761905,24.5928571 C25.8761905,24.1738095 26.2166667,23.9380952 26.6619048,23.9380952 C27.1071429,23.9380952 27.447619,24.2 27.447619,24.5928571 L27.447619,24.6714286 C27.447619,25.0904762 27.1071429,25.352381 26.6619048,25.352381 C26.2166667,25.352381 25.8761905,25.0904762 25.8761905,24.6714286 L25.8761905,24.5928571 Z M25.9809524,26.8452381 C25.9809524,26.452381 26.2690476,26.1642857 26.6619048,26.1642857 C27.0547619,26.1642857 27.3428571,26.4785714 27.3428571,26.8452381 L27.3428571,31.5857143 C27.3428571,31.9785714 27.0285714,32.2666667 26.6619048,32.2666667 C26.2952381,32.2666667 25.9809524,31.9785714 25.9809524,31.5857143 L25.9809524,26.8452381 Z" id="Shape"></path>
                            <path d="M28.8095238,29.2285714 L28.8095238,29.2285714 C28.8095238,27.5 30.1190476,26.0857143 31.9261905,26.0857143 C32.8690476,26.0857143 33.497619,26.4 34.0214286,26.8452381 C34.1,26.9238095 34.2309524,27.1071429 34.2309524,27.3166667 C34.2309524,27.6571429 33.9428571,27.9452381 33.602381,27.9452381 C33.4452381,27.9452381 33.2880952,27.8666667 33.1833333,27.8142857 C32.8428571,27.5261905 32.45,27.3166667 31.9,27.3166667 C30.9047619,27.3166667 30.1714286,28.1809524 30.1714286,29.2285714 L30.1714286,29.2547619 C30.1714286,30.3285714 30.9047619,31.1666667 31.952381,31.1666667 C32.502381,31.1666667 32.9214286,30.9571429 33.2880952,30.6428571 C33.3666667,30.5642857 33.497619,30.4857143 33.6547619,30.4857143 C33.9952381,30.4857143 34.2309524,30.747619 34.2309524,31.0880952 C34.2309524,31.2714286 34.152381,31.4285714 34.047619,31.5071429 C33.5238095,32.0047619 32.8690476,32.3452381 31.8738095,32.3452381 C30.1190476,32.3190476 28.8095238,30.9309524 28.8095238,29.2285714 Z" id="Path"></path>
                            <path d="M38.1595238,32.3190476 C36.4309524,32.3190476 35.0952381,31.0619048 35.0952381,29.2285714 L35.0952381,29.202381 C35.0952381,27.5 36.3,26.0857143 38.002381,26.0857143 C39.9142857,26.0857143 40.8309524,27.6571429 40.8309524,29.0190476 C40.8309524,29.4119048 40.5428571,29.6738095 40.1761905,29.6738095 L36.4309524,29.6738095 C36.5880952,30.6428571 37.2690476,31.1928571 38.1595238,31.1928571 C38.7357143,31.1928571 39.1809524,30.9833333 39.5738095,30.6690476 C39.6785714,30.5904762 39.7571429,30.5380952 39.9142857,30.5380952 C40.2285714,30.5380952 40.4642857,30.7738095 40.4642857,31.0880952 C40.4642857,31.2452381 40.3857143,31.402381 40.2809524,31.5071429 C39.7571429,32.0047619 39.0761905,32.3190476 38.1595238,32.3190476 Z M39.5214286,28.7833333 C39.4428571,27.8928571 38.9190476,27.2119048 38.002381,27.2119048 C37.1642857,27.2119048 36.5880952,27.8666667 36.4571429,28.7833333 L39.5214286,28.7833333 Z" id="Shape"></path>
                            <path d="M42.0357143,31.5857143 C41.8785714,31.5071429 41.7738095,31.3238095 41.7738095,31.1142857 C41.7738095,30.8 42.0095238,30.5642857 42.3238095,30.5642857 C42.4285714,30.5642857 42.5333333,30.5904762 42.6119048,30.6428571 C43.1880952,31.0357143 43.7904762,31.2190476 44.3404762,31.2190476 C44.9166667,31.2190476 45.2571429,30.9833333 45.2571429,30.5642857 L45.2571429,30.5380952 C45.2571429,30.0666667 44.6285714,29.9095238 43.9214286,29.7 C43.0309524,29.4642857 42.0619048,29.097619 42.0619048,27.9452381 L42.0619048,27.9190476 C42.0619048,26.7928571 43.0047619,26.0857143 44.1833333,26.0857143 C44.8119048,26.0857143 45.4928571,26.2690476 46.0690476,26.5833333 C46.252381,26.6880952 46.4095238,26.8714286 46.4095238,27.1071429 C46.4095238,27.4214286 46.1738095,27.6571429 45.8333333,27.6571429 C45.7285714,27.6571429 45.65,27.6309524 45.5714286,27.5785714 C45.0738095,27.3166667 44.5761905,27.1595238 44.1571429,27.1595238 C43.6333333,27.1595238 43.3190476,27.4214286 43.3190476,27.7357143 L43.3190476,27.7619048 C43.3190476,28.2071429 43.9738095,28.3904762 44.6547619,28.6 C45.5190476,28.8619048 46.5142857,29.2547619 46.5142857,30.3547619 L46.5142857,30.3809524 C46.5142857,31.6380952 45.5452381,32.2666667 44.2880952,32.2666667 C43.5547619,32.2928571 42.7166667,32.0571429 42.0357143,31.5857143 Z" id="Path"></path>
                        </g>
                        <path d="M1.44047619,0.89047619 C1.44047619,0.0523809524 0.183333333,0.0523809524 0.183333333,0.811904762 L0.20952381,54.0309524 C0.20952381,54.9738095 1.44047619,54.9738095 1.44047619,54.0833333 L1.44047619,0.89047619 Z" id="Path" fill="url(#linearGradient-1)"></path>
                    </g>
                    <g id="Group" transform="translate(0.000000, 14.404762)">
                        <path d="M50.4166667,0.261904762 L32.1619048,0.261904762 C30.0404762,0.261904762 28.3119048,2.01666667 28.3119048,4.13809524 L28.3119048,4.13809524 C28.3119048,6.25952381 30.0404762,7.98809524 32.1619048,7.98809524 L37.0071429,7.98809524 C37.2166667,7.98809524 37.4,8.17142857 37.4,8.38095238 L37.4,28.4952381 C37.4,30.6166667 39.1547619,32.3190476 41.2761905,32.3190476 L41.2761905,32.3190476 C43.397619,32.3190476 45.1261905,30.6166667 45.1261905,28.4952381 L45.1261905,8.38095238 C45.1261905,8.17142857 45.3095238,7.98809524 45.5190476,7.98809524 L50.4428571,7.98809524 C52.5642857,7.98809524 54.2928571,6.25952381 54.2928571,4.13809524 L54.2928571,4.13809524 C54.2928571,2.01666667 52.5642857,0.261904762 50.4166667,0.261904762 Z" id="Path" fill="#033072"></path>
                        <g id="Path">
                            <path d="M24.147619,0.75952381 L24.147619,0.75952381 C22.3142857,-0.314285714 19.9309524,0.34047619 18.8833333,2.17380952 L4.8452381,26.5047619 C3.77142857,28.3380952 4.42619048,30.7214286 6.25952381,31.7690476 L6.25952381,31.7690476 C8.09285714,32.8428571 10.4761905,32.1880952 11.5238095,30.3547619 L25.5357143,6.02380952 C26.6095238,4.19047619 25.9809524,1.83333333 24.147619,0.75952381 Z" fill="#033072"></path>
                            <path d="M10.2142857,17.1547619 L14.6666667,9.42857143 C14.5357143,9.66428571 14.2214286,9.69047619 14.0380952,9.48095238 L6.73095238,1.36190476 C5.31666667,-0.20952381 2.90714286,-0.288095238 1.41428571,1.23095238 L1.41428571,1.23095238 C-0.0785714286,2.72380952 -0.157142857,5.26428571 1.25714286,6.83571429 L10.1357143,16.7095238 C10.2666667,16.8404762 10.2928571,17.0238095 10.2142857,17.1547619 Z" fill="url(#linearGradient-2)"></path>
                        </g>
                        <path d="M67.65,0.261904762 C64.4547619,0.261904762 61.7047619,1.17857143 59.6619048,2.90714286 C57.5928571,4.68809524 56.4928571,7.12380952 56.4928571,9.95238095 L56.4928571,10.0047619 C56.4928571,13.0166667 57.4357143,15.1642857 59.4261905,16.7095238 C61.2071429,18.097619 63.6952381,18.9357143 66.8904762,19.747619 C72.1285714,21.0833333 72.4952381,21.8690476 72.4952381,22.9952381 L72.4952381,23.047619 C72.4952381,24.4619048 71.0809524,25.3 68.7238095,25.3 C66.1309524,25.3 63.7214286,24.4357143 61.3380952,22.7071429 L61.3380952,22.7071429 L61.3380952,22.7071429 C60.6571429,22.2357143 59.9238095,22 59.1119048,22 C57.0428571,22 55.4190476,23.597619 55.4190476,25.6404762 C55.4190476,26.8190476 55.9952381,27.9714286 56.9119048,28.6261905 C60.2642857,31.0357143 64.4285714,32.3714286 68.5928571,32.3714286 C71.997619,32.3714286 74.8785714,31.4809524 76.947619,29.8047619 C79.1214286,28.05 80.2738095,25.4833333 80.2738095,22.4190476 L80.2738095,22.3666667 C80.2738095,19.6690476 79.3833333,17.6 77.602381,16.0547619 C76.0309524,14.6928571 73.7785714,13.697619 70.3214286,12.7809524 C67.9119048,12.152381 66.2357143,11.6809524 65.2928571,11.1047619 C64.5333333,10.6595238 64.297619,10.2404762 64.297619,9.40238095 L64.297619,9.35 C64.297619,8.11904762 65.5809524,7.30714286 67.597619,7.30714286 C69.4571429,7.30714286 71.3952381,7.93571429 73.647619,9.2452381 C74.302381,9.61190476 74.9309524,9.7952381 75.6380952,9.7952381 C77.7071429,9.7952381 79.3309524,8.19761905 79.3309524,6.1547619 C79.3309524,4.60952381 78.4404762,3.50952381 77.5761905,3.01190476 C74.6428571,1.17857143 71.3166667,0.261904762 67.65,0.261904762 L67.65,0.261904762 Z" id="Path" fill="#033072"></path>
                    </g>
                </g>
            </g>
        </g>
    </g>
</svg>